<svg width="130" height="24" viewBox="0 0 130 24" fill="none" xmlns="http://www.w3.org/2000/svg">
<g clip-path="url(#clip0_329_15913)">
<path d="M25.498 12.0007H17.1055V14.0238L25.498 22.4176V12.0007Z" fill="white"/>
<path d="M11.9994 8.39258H15.5246L23.9172 0H12.0006C5.40104 0 0 5.39991 0 12.0006C0 18.6012 5.3999 24 12.0006 24H23.9172L15.5258 15.6074H12.0006C10.0338 15.6074 8.39373 13.9673 8.39373 12.0006C8.39373 10.0338 10.0327 8.39258 12.0006 8.39258H11.9994Z" fill="white"/>
<path d="M41.9349 23.3966C41.2535 23.3966 40.7654 23.2503 40.4707 22.9577C40.1761 22.6469 40.0287 22.0709 40.0287 21.2297C40.0287 20.6629 40.084 19.9406 40.1945 19.0629C40.3234 18.1669 40.526 16.9417 40.8023 15.3874C41.2811 12.5166 41.6587 10.0297 41.9349 7.92686C42.1007 6.61029 42.1836 5.51314 42.1836 4.63543C42.1836 3.81257 41.8797 3.40114 41.2719 3.40114C40.7931 3.40114 40.2129 3.648 39.5315 4.14171C38.8684 4.61714 38.1317 5.38514 37.3214 6.44571C37.0635 6.79314 36.7781 6.96686 36.465 6.96686C36.2071 6.96686 35.9769 6.848 35.7743 6.61029C35.5901 6.35429 35.498 6.07086 35.498 5.76C35.498 5.46743 35.5533 5.17486 35.6638 4.88229C35.7927 4.57143 35.9953 4.224 36.2716 3.84C37.1556 2.61486 38.1409 1.67314 39.2276 1.01486C40.3142 0.338286 41.4008 0 42.4875 0C43.5004 0 44.2739 0.32 44.808 0.960001C45.3606 1.6 45.6368 2.53257 45.6368 3.75771C45.6368 4.25143 45.5908 4.83657 45.4987 5.51314C45.4066 6.17143 45.3237 6.71086 45.2501 7.13143C45.1764 7.552 45.1211 7.84457 45.0843 8.00914C46.1341 5.02857 47.3128 2.95314 48.6204 1.78286C49.9281 0.594286 51.3646 0 52.9301 0C54.1273 0 55.0665 0.420571 55.748 1.26171C56.4478 2.10286 56.7978 3.29143 56.7978 4.82743C56.7978 5.43086 56.7149 6.18057 56.5491 7.07657C57.47 4.55314 58.5474 2.74286 59.7814 1.64571C61.0154 0.548571 62.4335 0 64.0358 0C65.325 0 66.3104 0.411429 66.9918 1.23429C67.6917 2.05714 68.0416 3.20914 68.0416 4.69029C68.0416 5.49486 67.9219 6.47314 67.6825 7.62514L65.9973 15.4697C65.8131 16.384 65.721 17.1703 65.721 17.8286C65.721 18.5966 65.896 19.1726 66.2459 19.5566C66.6143 19.9406 67.1207 20.1326 67.7653 20.1326C68.3731 20.1326 68.9625 19.9314 69.5334 19.5291C70.1228 19.1269 70.8134 18.4594 71.6054 17.5269C71.8264 17.2709 72.075 17.1429 72.3513 17.1429C72.5907 17.1429 72.7749 17.2526 72.9038 17.472C73.0511 17.6914 73.1248 17.9931 73.1248 18.3771C73.1248 19.0903 72.9498 19.6571 72.5999 20.0777C71.6422 21.2297 70.6937 22.0709 69.7544 22.6011C68.8151 23.1314 67.8298 23.3966 66.7984 23.3966C65.233 23.3966 64.0082 22.9394 63.1242 22.0251C62.2401 21.0926 61.7981 19.8491 61.7981 18.2949C61.7981 17.216 62.0191 15.6526 62.4611 13.6046L63.5662 8.58514C63.603 8.42057 63.6675 8.128 63.7596 7.70743C63.8516 7.28686 63.9253 6.89371 63.9806 6.528C64.0358 6.144 64.0634 5.76914 64.0634 5.40343C64.0634 4.76343 63.9345 4.288 63.6767 3.97714C63.4373 3.648 63.0873 3.48343 62.6269 3.48343C61.7613 3.48343 60.8496 4.04114 59.8919 5.15657C58.9526 6.25371 58.0502 8.08229 57.1845 10.6423C56.3373 13.2023 55.6467 16.5303 55.1126 20.6263C54.9837 21.7234 54.7534 22.464 54.4219 22.848C54.1088 23.2137 53.5931 23.3966 52.8749 23.3966C52.2487 23.3966 51.7882 23.2503 51.4936 22.9577C51.2173 22.6651 51.0792 22.1166 51.0792 21.312C51.0792 20.5623 51.1805 19.584 51.3831 18.3771C51.5857 17.152 51.8435 15.7166 52.1566 14.0709C53.0038 9.64571 53.4274 6.79314 53.4274 5.51314C53.4274 4.81829 53.2893 4.30629 53.013 3.97714C52.7552 3.648 52.3592 3.48343 51.8251 3.48343C50.9226 3.48343 49.9925 3.99543 49.0348 5.01943C48.0771 6.02514 47.1378 7.82629 46.217 10.4229C45.3145 13.0011 44.5594 16.4937 43.9516 20.9006C43.8227 21.8331 43.6293 22.4823 43.3715 22.848C43.1321 23.2137 42.6532 23.3966 41.9349 23.3966Z" fill="white"/>
<path d="M74.0205 23.3966C72.8786 23.3966 71.967 22.9851 71.2855 22.1623C70.6041 21.3394 70.2633 20.2606 70.2633 18.9257C70.2633 17.4629 70.6041 16.0823 71.2855 14.784C71.967 13.4674 72.8694 12.416 73.9929 11.6297C75.1348 10.8251 76.3411 10.4229 77.6119 10.4229C78.0171 10.4229 78.2841 10.5051 78.4131 10.6697C78.5604 10.816 78.6801 11.0903 78.7722 11.4926C79.159 11.4194 79.5641 11.3829 79.9877 11.3829C80.8902 11.3829 81.3414 11.7029 81.3414 12.3429C81.3414 12.7269 81.2033 13.6411 80.927 15.0857C80.5034 17.1886 80.2916 18.6514 80.2916 19.4743C80.2916 19.7486 80.3561 19.968 80.485 20.1326C80.6323 20.2971 80.8165 20.3794 81.0375 20.3794C81.3875 20.3794 81.8111 20.16 82.3083 19.7211C82.8056 19.264 83.4778 18.5326 84.325 17.5269C84.546 17.2709 84.7947 17.1429 85.0709 17.1429C85.3104 17.1429 85.4945 17.2526 85.6235 17.472C85.7708 17.6914 85.8445 17.9931 85.8445 18.3771C85.8445 19.1086 85.6695 19.6754 85.3196 20.0777C84.5645 21.0103 83.7633 21.7966 82.9161 22.4366C82.0689 23.0766 81.2493 23.3966 80.4574 23.3966C79.8496 23.3966 79.2879 23.1954 78.7722 22.7931C78.2749 22.3726 77.8974 21.8057 77.6395 21.0926C76.6818 22.6286 75.4755 23.3966 74.0205 23.3966ZM75.015 20.6263C75.4202 20.6263 75.807 20.3886 76.1753 19.9131C76.5437 19.4377 76.8107 18.8069 76.9765 18.0206L77.9987 12.9737C77.2251 12.992 76.5068 13.2846 75.8438 13.8514C75.1992 14.4 74.6835 15.1314 74.2968 16.0457C73.91 16.96 73.7166 17.9291 73.7166 18.9531C73.7166 19.52 73.8271 19.9406 74.0481 20.2149C74.2875 20.4891 74.6099 20.6263 75.015 20.6263Z" fill="white"/>
<path d="M85.2844 23.3966C84.5845 23.3966 84.0873 23.0309 83.7926 22.2994C83.5163 21.568 83.3782 20.3977 83.3782 18.7886C83.3782 16.4114 83.7189 14.1531 84.4004 12.0137C84.5661 11.4834 84.8332 11.0994 85.2015 10.8617C85.5883 10.6057 86.1224 10.4777 86.8038 10.4777C87.1722 10.4777 87.43 10.5234 87.5774 10.6149C87.7247 10.7063 87.7984 10.88 87.7984 11.136C87.7984 11.4286 87.6602 12.0869 87.384 13.1109C87.1998 13.8423 87.0525 14.4823 86.942 15.0309C86.8315 15.5794 86.7394 16.256 86.6657 17.0606C87.2735 15.488 87.9549 14.208 88.71 13.2206C89.4651 12.2331 90.2018 11.5291 90.9201 11.1086C91.6568 10.688 92.3291 10.4777 92.9368 10.4777C94.134 10.4777 94.7325 11.072 94.7325 12.2606C94.7325 12.9737 94.5299 14.2629 94.1248 16.128C93.7748 17.7189 93.5999 18.7703 93.5999 19.2823C93.5999 20.0137 93.8669 20.3794 94.401 20.3794C94.7694 20.3794 95.2022 20.16 95.6994 19.7211C96.2151 19.264 96.8966 18.5326 97.7438 17.5269C97.9648 17.2709 98.2134 17.1429 98.4897 17.1429C98.7291 17.1429 98.9133 17.2526 99.0422 17.472C99.1895 17.6914 99.2632 17.9931 99.2632 18.3771C99.2632 19.1086 99.0882 19.6754 98.7383 20.0777C97.9464 21.0469 97.09 21.8423 96.1691 22.464C95.2666 23.0857 94.2353 23.3966 93.075 23.3966C92.1357 23.3966 91.4266 23.1314 90.9478 22.6011C90.4689 22.0526 90.2295 21.2663 90.2295 20.2423C90.2295 19.7303 90.3584 18.816 90.6162 17.4994C90.8557 16.3474 90.9754 15.552 90.9754 15.1131C90.9754 14.8206 90.8741 14.6743 90.6715 14.6743C90.4321 14.6743 90.0913 14.9851 89.6493 15.6069C89.2257 16.2103 88.7837 17.0149 88.3233 18.0206C87.8813 19.0263 87.5221 20.0869 87.2458 21.2023C87.0433 22.0617 86.8038 22.6469 86.5276 22.9577C86.2697 23.2503 85.8553 23.3966 85.2844 23.3966Z" fill="white"/>
<path d="M101.89 24C100.933 24 100.196 23.7806 99.6802 23.3417C99.1829 22.9029 98.9343 22.4091 98.9343 21.8606C98.9343 21.3851 99.1092 20.9737 99.4592 20.6263C99.8091 20.2789 100.325 20.1051 101.006 20.1051C101.246 20.1051 101.522 20.1326 101.835 20.1874C102.167 20.224 102.415 20.2514 102.581 20.2697C102.563 19.7943 102.452 19.3463 102.249 18.9257C102.065 18.5051 101.826 18.1029 101.531 17.7189C101.236 17.3166 100.96 16.9691 100.702 16.6766C100.131 17.7554 99.5605 18.6514 98.9895 19.3646C98.437 20.0777 97.8292 20.7543 97.1662 21.3943C96.8347 21.7234 96.4848 21.888 96.1164 21.888C95.8217 21.888 95.5823 21.7874 95.3981 21.5863C95.214 21.3669 95.1219 21.1017 95.1219 20.7909C95.1219 20.4251 95.2508 20.0869 95.5086 19.776L95.8678 19.3371C96.8807 18.0937 97.6451 17.0697 98.1608 16.2651C98.4739 15.7349 98.8422 15.0309 99.2658 14.1531C99.6894 13.2571 100.104 12.3337 100.509 11.3829C100.859 10.5783 101.586 10.176 102.691 10.176C103.207 10.176 103.566 10.2217 103.769 10.3131C103.971 10.4046 104.073 10.5509 104.073 10.752C104.073 10.8617 104.036 11.0354 103.962 11.2731C103.889 11.5109 103.787 11.7486 103.658 11.9863C103.327 12.6446 103.161 13.2023 103.161 13.6594C103.161 13.9337 103.253 14.2354 103.437 14.5646C103.64 14.8937 103.944 15.3051 104.349 15.7989C104.938 16.5669 105.38 17.2251 105.675 17.7737C105.988 18.304 106.145 18.8891 106.145 19.5291C106.145 19.712 106.126 19.968 106.089 20.2971C106.992 19.9497 108.051 19.0263 109.266 17.5269C109.487 17.2709 109.736 17.1429 110.012 17.1429C110.252 17.1429 110.436 17.2526 110.565 17.472C110.712 17.6914 110.786 17.9931 110.786 18.3771C110.786 19.072 110.611 19.6389 110.261 20.0777C109.34 21.2114 108.456 21.9886 107.609 22.4091C106.78 22.8114 105.749 23.0309 104.515 23.0674C103.778 23.6891 102.903 24 101.89 24Z" fill="white"/>
<path d="M120.586 17.1429C120.826 17.1429 121.01 17.2526 121.139 17.472C121.286 17.6914 121.36 17.9931 121.36 18.3771C121.36 19.1086 121.185 19.6754 120.835 20.0777C120.154 20.9006 119.187 21.6594 117.934 22.3543C116.7 23.0491 115.374 23.3966 113.956 23.3966C112.022 23.3966 110.521 22.8754 109.453 21.8331C108.385 20.7909 107.851 19.3646 107.851 17.5543C107.851 16.2926 108.118 15.1223 108.652 14.0434C109.186 12.9463 109.923 12.0777 110.862 11.4377C111.82 10.7977 112.897 10.4777 114.094 10.4777C115.163 10.4777 116.019 10.7977 116.664 11.4377C117.308 12.0594 117.63 12.9097 117.63 13.9886C117.63 15.2503 117.17 16.3383 116.249 17.2526C115.347 18.1486 113.809 18.8617 111.636 19.392C112.096 20.2331 112.971 20.6537 114.26 20.6537C115.089 20.6537 116.028 20.3703 117.078 19.8034C118.146 19.2183 119.067 18.4594 119.841 17.5269C120.062 17.2709 120.31 17.1429 120.586 17.1429ZM113.625 13.1657C112.943 13.1657 112.363 13.5589 111.884 14.3451C111.424 15.1314 111.194 16.0823 111.194 17.1977V17.2526C112.28 16.9966 113.137 16.6126 113.763 16.1006C114.389 15.5886 114.702 14.9943 114.702 14.3177C114.702 13.9703 114.601 13.696 114.398 13.4949C114.214 13.2754 113.956 13.1657 113.625 13.1657Z" fill="white"/>
<path d="M128.725 17.9657C128.964 17.9657 129.148 18.0754 129.277 18.2949C129.424 18.5143 129.498 18.816 129.498 19.2C129.498 19.8583 129.341 20.4251 129.028 20.9006C128.513 21.6869 127.831 22.2994 126.984 22.7383C126.155 23.1771 125.161 23.3966 124 23.3966C122.232 23.3966 120.86 22.8754 119.884 21.8331C118.908 20.7726 118.42 19.3463 118.42 17.5543C118.42 16.2926 118.687 15.1223 119.221 14.0434C119.755 12.9463 120.492 12.0777 121.431 11.4377C122.389 10.7977 123.466 10.4777 124.663 10.4777C125.732 10.4777 126.588 10.7977 127.233 11.4377C127.877 12.0594 128.2 12.9097 128.2 13.9886C128.2 15.2503 127.739 16.3383 126.818 17.2526C125.916 18.1486 124.369 18.8617 122.177 19.392C122.619 20.2331 123.365 20.6537 124.415 20.6537C125.17 20.6537 125.787 20.48 126.266 20.1326C126.763 19.7851 127.334 19.2 127.979 18.3771C128.2 18.1029 128.448 17.9657 128.725 17.9657ZM124.194 13.1657C123.512 13.1657 122.932 13.5589 122.453 14.3451C121.993 15.1314 121.763 16.0823 121.763 17.1977V17.2526C122.849 16.9966 123.706 16.6126 124.332 16.1006C124.958 15.5886 125.271 14.9943 125.271 14.3177C125.271 13.9703 125.17 13.696 124.967 13.4949C124.783 13.2754 124.525 13.1657 124.194 13.1657Z" fill="white"/>
</g>
<defs>
<clipPath id="clip0_329_15913">
<rect width="129.498" height="24" fill="white"/>
</clipPath>
</defs>
</svg>
